# This file uses meters as units for non-parametric coordinates.

g default
v -616.768677 13.727086 719.055603
v 886.679077 13.727086 719.055603
v -376.530396 269.487798 719.055603
v 751.295532 116.675054 719.055603
v -897.797485 242.852636 -372.812286
v 886.679077 608.050634 -756.770325
v -616.768677 13.727086 -756.770325
v 886.679077 13.727086 -756.770325
v -596.991821 33.503957 699.278809
v 866.901978 33.503957 699.278809
v 734.168335 116.675054 701.928406
v -359.403442 269.487798 701.928406
v -880.670044 242.852636 -355.685059
v 869.551880 608.050634 -739.643127
v 866.901978 33.503957 -736.993530
v -596.991821 33.503957 -736.993530
v 134.954956 472.226476 701.928406
v 220.976196 169.888784 -739.643127
v 220.976196 169.888784 -756.770325
v 134.954956 472.226476 719.055603
v 897.797485 94.637136 -18.857361
v 880.670288 94.637136 -18.857361
v -752.158813 132.422567 123.203156
v -769.285767 132.422567 123.203156
v 886.679077 13.727086 -18.857361
v 437.737183 79.926069 418.841064
v 882.605347 16.223287 147.178268
v 393.221802 57.901189 100.989128
v 632.484497 399.203710 -251.165497
v 401.754761 39.205709 96.779297
v 641.017456 380.508245 -255.375305
v 446.270142 61.230596 414.631226
v 891.138550 -2.472209 142.968430
v -605.701782 73.927450 -447.406647
v -283.299438 244.908010 -182.443909
v -351.552368 -13.909434 -510.837555
v -4.909302 281.476842 -621.196106
v -346.298462 -21.412303 -495.324707
v 0.345093 273.973974 -605.683289
v -600.447388 66.424581 -431.893829
v -278.045044 237.405126 -166.931091
v -226.975708 24.237661 402.270813
v -358.767700 292.823522 218.027634
v 50.798218 -30.248606 632.539795
v -119.915649 219.019933 -195.873627
v 60.849976 -11.762263 708.227783
v -109.863403 237.506292 -120.185638
v -216.923462 42.724012 477.958771
v -348.715942 311.309881 293.715576
v 86.765503 71.291524 -260.977783
v 772.301880 46.997960 -260.977783
v -131.261353 319.886205 -677.945190
v 455.152466 177.387655 -260.977783
v 226.802612 491.470373 -722.495422
v 602.536743 319.886205 -607.123230
v 86.765503 46.997960 -722.495422
v 772.301880 46.997960 -722.495422
v 417.138306 195.779348 669.006531
v 406.541626 79.403829 496.849182
v 260.094849 155.657842 756.770325
v 357.764282 142.116735 561.341370
v 220.958618 89.353750 665.730408
v 293.405640 41.312850 571.799927
v 341.815308 93.504407 734.402466
v 367.311157 -28.837828 572.433472
v -336.511841 56.406713 -47.298645
v -358.747681 492.284948 -59.476471
v -666.049927 -53.804408 -217.173462
v -461.101196 307.470769 -21.065552
v -748.172974 182.059377 -232.045959
v -596.151001 402.473913 -211.326508
v -494.568481 55.794515 -302.032410
v -441.068481 480.352819 -336.248535
vt 0.406250 0.000000
vt 0.687500 0.000000
vt 0.375000 0.250000
vt 0.625000 0.250000
vt 0.375000 0.500000
vt 0.625000 0.500000
vt 0.437500 0.750000
vt 0.625000 0.750000
vt 0.437500 0.937500
vt 0.625000 0.937500
vt 0.875000 0.000000
vt 0.875000 0.250000
vt 0.125000 0.000000
vt 0.125000 0.250000
vt 0.375000 0.000000
vt 0.562500 0.000000
vt 0.625000 0.250000
vt 0.375000 0.250000
vt 0.375000 0.500000
vt 0.625000 0.500000
vt 0.562500 0.750000
vt 0.375000 0.750000
vt 0.875000 0.000000
vt 0.875000 0.250000
vt 0.187500 0.000000
vt 0.125000 0.250000
vt 0.625000 0.250000
vt 0.375000 0.250000
vt 0.375000 0.500000
vt 0.625000 0.500000
vt 0.875000 0.250000
vt 0.125000 0.250000
vt 0.500000 0.250000
vt 0.500000 0.500000
vt 0.500000 0.500000
vt 0.500000 0.500000
vt 0.500000 0.250000
vt 0.500000 0.250000
vt 0.750000 0.250000
vt 0.750000 0.250000
vt 0.750000 0.250000
vt 0.250000 0.250000
vt 0.250000 0.250000
vt 0.250000 0.250000
vt 0.750000 0.000000
vt 0.375000 0.000000
vt 0.625000 0.000000
vt 0.625000 0.250000
vt 0.375000 0.250000
vt 0.625000 0.500000
vt 0.375000 0.500000
vt 0.625000 0.750000
vt 0.375000 0.750000
vt 0.625000 1.000000
vt 0.375000 1.000000
vt 0.875000 0.000000
vt 0.875000 0.250000
vt 0.125000 0.000000
vt 0.125000 0.250000
vt 0.375000 0.000000
vt 0.625000 0.000000
vt 0.625000 0.250000
vt 0.375000 0.250000
vt 0.625000 0.500000
vt 0.375000 0.500000
vt 0.625000 0.750000
vt 0.375000 0.750000
vt 0.625000 1.000000
vt 0.375000 1.000000
vt 0.875000 0.000000
vt 0.875000 0.250000
vt 0.125000 0.000000
vt 0.125000 0.250000
vt 0.375000 0.000000
vt 0.625000 0.000000
vt 0.625000 0.250000
vt 0.375000 0.250000
vt 0.625000 0.500000
vt 0.375000 0.500000
vt 0.625000 0.750000
vt 0.375000 0.750000
vt 0.625000 1.000000
vt 0.375000 1.000000
vt 0.875000 0.000000
vt 0.875000 0.250000
vt 0.125000 0.000000
vt 0.125000 0.250000
vt 0.375000 0.000000
vt 0.625000 0.000000
vt 0.625000 0.250000
vt 0.375000 0.250000
vt 0.625000 0.500000
vt 0.375000 0.500000
vt 0.625000 0.750000
vt 0.375000 0.750000
vt 0.625000 1.000000
vt 0.375000 1.000000
vt 0.875000 0.000000
vt 0.875000 0.250000
vt 0.125000 0.000000
vt 0.125000 0.250000
vt 0.375000 0.000000
vt 0.625000 0.000000
vt 0.625000 0.250000
vt 0.375000 0.250000
vt 0.625000 0.500000
vt 0.375000 0.500000
vt 0.625000 0.750000
vt 0.375000 0.750000
vt 0.625000 1.000000
vt 0.375000 1.000000
vt 0.875000 0.000000
vt 0.875000 0.250000
vt 0.125000 0.000000
vt 0.125000 0.250000
vt 0.375000 0.000000
vt 0.625000 0.000000
vt 0.625000 0.250000
vt 0.375000 0.250000
vt 0.625000 0.500000
vt 0.375000 0.500000
vt 0.625000 0.750000
vt 0.375000 0.750000
vt 0.625000 1.000000
vt 0.375000 1.000000
vt 0.875000 0.000000
vt 0.875000 0.250000
vt 0.125000 0.000000
vt 0.125000 0.250000
vn 0.001038 0.008960 -0.999959
vn -0.007841 0.019120 -0.999786
vn 0.001389 0.008558 -0.999963
vn 0.138677 -0.820955 0.553897
vn 0.129309 -0.765751 0.630004
vn 0.010971 -0.067062 0.997689
vn -0.680887 -0.729186 -0.068421
vn -0.530363 -0.843796 -0.081999
vn -0.999528 0.027430 0.013815
vn 0.913921 -0.288325 -0.285688
vn 0.620981 0.783758 -0.010300
vn 0.674427 -0.675675 -0.297678
vn -0.000000 0.000000 1.000000
vn -0.000000 0.000000 1.000000
vn -0.000000 0.000000 1.000000
vn -0.000000 0.000000 1.000000
vn -0.104608 0.561180 -0.821057
vn -0.089278 0.478942 -0.873295
vn -0.021480 0.115232 -0.993106
vn -0.104608 0.561180 -0.821057
vn 0.826260 0.558450 0.073682
vn 0.991401 0.130573 0.008587
vn 0.995257 0.097212 0.003609
vn 0.826260 0.558450 0.073682
vn -0.789739 -0.609445 0.069915
vn -0.951275 -0.237960 0.196090
vn -0.951275 -0.237960 0.196090
vn -0.931474 -0.320422 0.172297
vn 0.132261 0.961320 -0.241602
vn 0.132261 0.961320 -0.241602
vn -0.221472 0.958546 -0.179273
vn -0.172037 0.969083 -0.176864
vn 0.029530 0.999479 0.013015
vn 0.001347 0.998395 0.056616
vn -0.153408 0.981385 -0.115537
vn -0.217951 0.965576 -0.141988
vn 0.172081 0.931986 0.319047
vn 0.155925 0.946279 0.283272
vn 0.253129 0.957592 -0.137634
vn 0.240052 0.961791 -0.131656
vn -0.097433 0.993026 -0.066387
vn -0.108042 0.993309 0.040792
vn 0.001461 0.008476 -0.999963
vn 0.001461 0.008476 -0.999963
vn -0.002033 0.009800 0.999950
vn -0.002033 0.009800 0.999950
vn -0.129140 0.970708 0.202603
vn -0.120412 0.969993 0.211221
vn 0.000000 0.000000 -1.000000
vn 0.000000 0.000000 1.000000
vn -0.998941 0.043333 0.015463
vn -0.998941 0.043333 0.015463
vn 0.000000 1.000000 0.000000
vn 0.000000 1.000000 0.000000
vn 0.000000 1.000000 0.000000
vn 0.000000 1.000000 0.000000
vn 0.572139 0.820109 0.008897
vn 0.572139 0.820109 0.008897
vn -0.637199 -0.770672 -0.006487
vn 0.999777 -0.016462 -0.013259
vn 0.999777 -0.016462 -0.013259
vn 0.035132 0.898181 0.438221
vn 0.035132 0.898180 0.438221
vn 0.035132 0.898181 0.438221
vn 0.035132 0.898180 0.438221
vn -0.723585 -0.180222 -0.666292
vn -0.723585 -0.180222 -0.666292
vn -0.723585 -0.180222 -0.666292
vn -0.723585 -0.180222 -0.666292
vn -0.035132 -0.898181 -0.438221
vn -0.035132 -0.898180 -0.438221
vn -0.035132 -0.898181 -0.438221
vn -0.035132 -0.898181 -0.438221
vn 0.525617 0.048658 0.849329
vn 0.525617 0.048658 0.849329
vn 0.525617 0.048658 0.849329
vn 0.525617 0.048658 0.849329
vn 0.888880 0.436811 -0.138160
vn 0.888880 0.436811 -0.138160
vn 0.888880 0.436811 -0.138160
vn 0.888880 0.436811 -0.138160
vn -0.885225 -0.438797 0.154382
vn -0.885225 -0.438797 0.154382
vn -0.885225 -0.438797 0.154382
vn -0.885225 -0.438797 0.154382
vn -0.408993 0.756108 -0.510907
vn -0.408993 0.756108 -0.510907
vn -0.408993 0.756108 -0.510907
vn -0.408993 0.756108 -0.510907
vn 0.459241 -0.728725 -0.507994
vn 0.459241 -0.728725 -0.507994
vn 0.459241 -0.728725 -0.507994
vn 0.459241 -0.728725 -0.507994
vn 0.408993 -0.756107 0.510907
vn 0.408993 -0.756107 0.510907
vn 0.408993 -0.756107 0.510907
vn 0.408993 -0.756107 0.510907
vn -0.687456 0.534675 0.491453
vn -0.687457 0.534675 0.491454
vn -0.687456 0.534675 0.491453
vn -0.687457 0.534675 0.491454
vn 0.362478 0.881211 0.303442
vn 0.362478 0.881211 0.303442
vn 0.362478 0.881211 0.303442
vn 0.362478 0.881211 0.303442
vn -0.377239 -0.877348 -0.296565
vn -0.377239 -0.877348 -0.296565
vn -0.377239 -0.877348 -0.296565
vn -0.377239 -0.877348 -0.296565
vn -0.340043 -0.874578 -0.345665
vn -0.340043 -0.874578 -0.345665
vn -0.340043 -0.874578 -0.345665
vn -0.340043 -0.874578 -0.345665
vn 0.978001 0.131427 -0.161990
vn 0.978001 0.131427 -0.161990
vn 0.978001 0.131427 -0.161990
vn 0.978001 0.131427 -0.161990
vn 0.340042 0.874579 0.345664
vn 0.340042 0.874579 0.345664
vn 0.340042 0.874579 0.345664
vn 0.340042 0.874578 0.345664
vn -0.926896 -0.317226 0.200580
vn -0.926896 -0.317226 0.200580
vn -0.926896 -0.317226 0.200580
vn -0.926896 -0.317226 0.200580
vn -0.090109 0.970184 -0.224996
vn -0.090109 0.970184 -0.224996
vn -0.090109 0.970184 -0.224996
vn -0.090109 0.970184 -0.224996
vn -0.393948 -0.879460 0.267122
vn -0.393948 -0.879461 0.267122
vn -0.393948 -0.879460 0.267122
vn -0.393948 -0.879460 0.267122
vn -0.174702 0.606601 0.775574
vn -0.174702 0.606601 0.775574
vn -0.174702 0.606601 0.775574
vn -0.174702 0.606601 0.775574
vn -0.056030 0.812307 0.580533
vn -0.056030 0.812307 0.580533
vn -0.056030 0.812307 0.580533
vn -0.056030 0.812307 0.580533
vn 0.132601 0.162740 -0.977718
vn 0.132601 0.162740 -0.977718
vn 0.132601 0.162740 -0.977718
vn 0.132601 0.162740 -0.977718
vn -0.017710 -0.999497 0.026306
vn -0.017710 -0.999497 0.026306
vn -0.017710 -0.999497 0.026306
vn -0.017710 -0.999497 0.026306
vn 0.652182 0.717192 0.245548
vn 0.652182 0.717192 0.245548
vn 0.652182 0.717192 0.245548
vn 0.652182 0.717192 0.245548
vn -0.669488 -0.436805 -0.600822
vn -0.669488 -0.436805 -0.600822
vn -0.669488 -0.436805 -0.600822
vn -0.669488 -0.436805 -0.600822
vn -0.168494 0.916148 -0.363708
vn -0.168494 0.916148 -0.363708
vn -0.168494 0.916148 -0.363708
vn -0.168494 0.916148 -0.363708
vn -0.613667 0.617396 -0.492174
vn -0.613667 0.617396 -0.492174
vn -0.613667 0.617396 -0.492174
vn -0.613667 0.617396 -0.492174
vn -0.416646 -0.822142 0.387930
vn -0.416646 -0.822142 0.387930
vn -0.416646 -0.822142 0.387930
vn -0.416646 -0.822142 0.387930
vn 0.910250 -0.316635 0.266811
vn 0.910249 -0.316635 0.266811
vn 0.910249 -0.316635 0.266811
vn 0.910249 -0.316635 0.266811
vn -0.530423 -0.084351 -0.843526
vn -0.530423 -0.084351 -0.843526
vn -0.530423 -0.084351 -0.843526
vn -0.530423 -0.084351 -0.843526
vn 0.101188 -0.216418 0.971043
vn 0.101188 -0.216418 0.971043
vn 0.101188 -0.216418 0.971043
vn 0.101188 -0.216418 0.971043
vn -0.168495 -0.184784 0.968228
vn -0.168495 -0.184784 0.968228
vn -0.168495 -0.184784 0.968228
vn -0.168495 -0.184783 0.968228
vn -0.613667 0.083951 0.785089
vn -0.613667 0.083951 0.785089
vn -0.613667 0.083951 0.785089
vn -0.613667 0.083951 0.785089
vn -0.416647 0.113892 -0.901906
vn -0.416647 0.113892 -0.901906
vn -0.416647 0.113892 -0.901906
vn -0.416647 0.113892 -0.901906
vn 0.910250 -0.055201 -0.410364
vn 0.910249 -0.055201 -0.410364
vn 0.910250 -0.055201 -0.410364
vn 0.910250 -0.055201 -0.410364
vn -0.530423 0.757027 0.381526
vn -0.530423 0.757027 0.381526
vn -0.530423 0.757027 0.381526
vn -0.530423 0.757027 0.381526
vn 0.101188 -0.703208 -0.703746
vn 0.101188 -0.703208 -0.703746
vn 0.101188 -0.703208 -0.703746
vn 0.101188 -0.703208 -0.703746
s 1
g Floor_Wreck
f 9/1/1 12/28/2 17/33/3
s 2
f 13/29/4 16/7/5 18/34/6
s 3
f 10/2/7 11/27/8 22/41/9
s 4
f 9/1/10 23/42/11 12/28/12
s 5
f 1/15/13 2/16/14 20/38/15 3/18/16
s 6
f 5/19/17 19/35/18 8/21/19 7/22/20
s 7
f 2/16/21 25/45/22 21/40/23 4/17/24
s 8
f 7/25/25 1/15/26 3/18/27 24/43/28
s 9
f 20/37/29 17/33/30 12/28/31 3/3/32
f 5/5/33 13/29/34 18/34/35 19/36/36
f 21/39/37 22/41/38 11/27/39 4/4/40
f 3/3/32 12/28/31 23/42/41 24/44/42
s 1
f 9/1/1 17/33/3 11/27/43 10/2/44
s 2
f 18/34/6 16/7/5 15/8/45 14/30/46
s 9
f 19/36/36 18/34/35 14/30/47 6/6/48
s 6
f 8/21/19 19/35/18 6/20/49
s 5
f 20/38/15 2/16/14 4/17/50
s 9
f 4/4/40 11/27/39 17/33/30 20/37/29
f 6/12/48 14/31/47 22/41/38 21/39/37
s 3
f 10/2/7 22/41/9 14/31/51 15/11/52
s off
f 16/7/53 9/9/54 10/10/55 15/8/56
s 4
f 16/13/57 13/32/58 23/42/11 9/1/10
s 9
f 24/44/42 23/42/41 13/32/34 5/14/33
s 8
f 7/25/25 24/43/28 5/26/59
s 7
f 21/40/23 25/45/22 8/23/60 6/24/61
s off
f 26/46/62 27/47/63 29/48/64 28/49/65
f 28/49/66 29/48/67 31/50/68 30/51/69
f 30/51/70 31/50/71 33/52/72 32/53/73
f 32/53/74 33/52/75 27/54/76 26/55/77
f 27/47/78 33/56/79 31/57/80 29/48/81
f 32/58/82 26/46/83 28/49/84 30/59/85
f 34/60/86 35/61/87 37/62/88 36/63/89
f 36/63/90 37/62/91 39/64/92 38/65/93
f 38/65/94 39/64/95 41/66/96 40/67/97
f 40/67/98 41/66/99 35/68/100 34/69/101
f 35/61/102 41/70/103 39/71/104 37/62/105
f 40/72/106 34/60/107 36/63/108 38/73/109
f 42/74/110 43/75/111 45/76/112 44/77/113
f 44/77/114 45/76/115 47/78/116 46/79/117
f 46/79/118 47/78/119 49/80/120 48/81/121
f 48/81/122 49/80/123 43/82/124 42/83/125
f 43/75/126 49/84/127 47/85/128 45/76/129
f 48/86/130 42/74/131 44/77/132 46/87/133
f 50/88/134 51/89/135 53/90/136 52/91/137
f 52/91/138 53/90/139 55/92/140 54/93/141
f 54/93/142 55/92/143 57/94/144 56/95/145
f 56/95/146 57/94/147 51/96/148 50/97/149
f 51/89/150 57/98/151 55/99/152 53/90/153
f 56/100/154 50/88/155 52/91/156 54/101/157
f 58/102/158 59/103/159 61/104/160 60/105/161
f 60/105/162 61/104/163 63/106/164 62/107/165
f 62/107/166 63/106/167 65/108/168 64/109/169
f 64/109/170 65/108/171 59/110/172 58/111/173
f 59/103/174 65/112/175 63/113/176 61/104/177
f 64/114/178 58/102/179 60/105/180 62/115/181
f 66/116/182 67/117/183 69/118/184 68/119/185
f 68/119/186 69/118/187 71/120/188 70/121/189
f 70/121/190 71/120/191 73/122/192 72/123/193
f 72/123/194 73/122/195 67/124/196 66/125/197
f 67/117/198 73/126/199 71/127/200 69/118/201
f 72/128/202 66/116/203 68/119/204 70/129/205
