# This file uses meters as units for non-parametric coordinates.

g default
v -755.154297 0.000107 737.912964
v 748.294006 0.000107 737.912964
v -755.154297 300.000122 737.912964
v 748.294006 300.000122 737.912964
v -755.154297 300.000122 -737.912964
v 748.294006 300.000122 -737.912964
v -755.154297 0.000107 -737.912964
v 748.294006 0.000107 -737.912964
v -709.963623 300.000122 693.552490
v 703.103271 300.000122 693.552490
v 703.103271 300.000122 -693.552490
v -709.963623 300.000122 -693.552490
v -709.963623 200.000000 693.552490
v 703.103271 200.000000 693.552490
v 703.103271 200.000000 -693.552490
v -709.963623 200.000000 -693.552490
v 490.296478 192.385559 -494.983612
v 584.126831 192.385559 -494.983612
v 490.296478 286.215912 -494.983612
v 584.126831 286.215912 -494.983612
v 490.296478 286.215912 -588.813965
v 584.126831 286.215912 -588.813965
v 490.296478 192.385559 -588.813965
v 584.126831 192.385559 -588.813965
v -16.695745 198.936920 81.137604
v 73.511147 198.936920 81.137604
v -16.695745 398.936920 81.137604
v 73.511147 398.936920 81.137604
v -16.695745 398.936920 77.202072
v 73.511147 398.936920 77.202072
v -16.695745 198.936920 77.202072
v 73.511147 198.936920 77.202072
v -78.815559 38.279930 555.425049
v 131.294205 38.279930 555.425049
v -78.815559 186.779617 555.425049
v 131.294205 186.779617 555.425049
v -78.815559 449.596619 79.448814
v 131.294205 449.596619 79.448814
v -78.815559 192.832306 79.448814
v 131.294205 192.832306 79.448814
v 490.296478 192.385559 -363.276367
v 584.126831 192.385559 -363.276367
v 490.296478 286.215912 -363.276367
v 584.126831 286.215912 -363.276367
v 490.296478 286.215912 -457.106750
v 584.126831 286.215912 -457.106750
v 490.296478 192.385559 -457.106750
v 584.126831 192.385559 -457.106750
v 490.296478 192.385559 -231.569153
v 584.126831 192.385559 -231.569153
v 490.296478 286.215912 -231.569153
v 584.126831 286.215912 -231.569153
v 490.296478 286.215912 -325.399536
v 584.126831 286.215912 -325.399536
v 490.296478 192.385559 -325.399536
v 584.126831 192.385559 -325.399536
v 490.296478 192.385559 -99.861946
v 584.126831 192.385559 -99.861946
v 490.296478 286.215912 -99.861946
v 584.126831 286.215912 -99.861946
v 490.296478 286.215912 -193.692322
v 584.126831 286.215912 -193.692322
v 490.296478 192.385559 -193.692322
v 584.126831 192.385559 -193.692322
v -680.579224 186.878723 618.665955
v -421.509644 186.878723 618.665955
v -680.579224 399.128845 618.665955
v -421.509644 399.128845 618.665955
v -680.579224 399.128845 195.322586
v -421.509644 399.128845 195.322586
v -680.579224 186.878723 195.322586
v -421.509644 186.878723 195.322586
vt 0.375000 0.000000
vt 0.625000 0.000000
vt 0.375000 0.250000
vt 0.625000 0.250000
vt 0.375000 0.500000
vt 0.625000 0.500000
vt 0.375000 0.750000
vt 0.625000 0.750000
vt 0.375000 1.000000
vt 0.625000 1.000000
vt 0.875000 0.000000
vt 0.875000 0.250000
vt 0.125000 0.000000
vt 0.125000 0.250000
vt 0.375000 0.250000
vt 0.625000 0.250000
vt 0.625000 0.500000
vt 0.375000 0.500000
vt 0.375000 0.250000
vt 0.625000 0.250000
vt 0.625000 0.500000
vt 0.375000 0.500000
vt 0.375000 0.000000
vt 0.625000 0.000000
vt 0.625000 0.250000
vt 0.375000 0.250000
vt 0.625000 0.500000
vt 0.375000 0.500000
vt 0.625000 0.750000
vt 0.375000 0.750000
vt 0.875000 0.000000
vt 0.875000 0.250000
vt 0.125000 0.000000
vt 0.125000 0.250000
vt 0.375000 0.250000
vt 0.625000 0.250000
vt 0.625000 0.500000
vt 0.375000 0.500000
vt 0.625000 0.750000
vt 0.375000 0.750000
vt 0.625000 0.000000
vt 0.875000 0.000000
vt 0.875000 0.250000
vt 0.125000 0.000000
vt 0.375000 0.000000
vt 0.125000 0.250000
vt 0.375000 0.250000
vt 0.625000 0.250000
vt 0.625000 0.500000
vt 0.375000 0.500000
vt 0.625000 0.750000
vt 0.375000 0.750000
vt 0.625000 0.000000
vt 0.875000 0.000000
vt 0.875000 0.250000
vt 0.125000 0.000000
vt 0.375000 0.000000
vt 0.125000 0.250000
vt 0.375000 0.000000
vt 0.625000 0.000000
vt 0.625000 0.250000
vt 0.375000 0.250000
vt 0.625000 0.500000
vt 0.375000 0.500000
vt 0.625000 0.750000
vt 0.375000 0.750000
vt 0.875000 0.000000
vt 0.875000 0.250000
vt 0.125000 0.000000
vt 0.125000 0.250000
vt 0.375000 0.000000
vt 0.625000 0.000000
vt 0.625000 0.250000
vt 0.375000 0.250000
vt 0.625000 0.500000
vt 0.375000 0.500000
vt 0.625000 0.750000
vt 0.375000 0.750000
vt 0.875000 0.000000
vt 0.875000 0.250000
vt 0.125000 0.000000
vt 0.125000 0.250000
vt 0.375000 0.000000
vt 0.625000 0.000000
vt 0.625000 0.250000
vt 0.375000 0.250000
vt 0.625000 0.500000
vt 0.375000 0.500000
vt 0.625000 0.750000
vt 0.375000 0.750000
vt 0.875000 0.000000
vt 0.875000 0.250000
vt 0.125000 0.000000
vt 0.125000 0.250000
vt 0.375000 0.000000
vt 0.625000 0.000000
vt 0.625000 0.250000
vt 0.375000 0.250000
vt 0.625000 0.500000
vt 0.375000 0.500000
vt 0.625000 0.750000
vt 0.375000 0.750000
vt 0.875000 0.000000
vt 0.875000 0.250000
vt 0.125000 0.000000
vt 0.125000 0.250000
vn 0.000000 0.000000 1.000000
vn 0.000000 0.000000 1.000000
vn 0.000000 0.000000 1.000000
vn 0.000000 0.000000 1.000000
vn 0.000000 1.000000 0.000000
vn 0.000000 1.000000 0.000000
vn 0.000000 1.000000 0.000000
vn 0.000000 1.000000 0.000000
vn 0.000000 0.000000 -1.000000
vn 0.000000 0.000000 -1.000000
vn 0.000000 0.000000 -1.000000
vn 0.000000 0.000000 -1.000000
vn 0.000000 -1.000000 0.000000
vn 0.000000 -1.000000 0.000000
vn 0.000000 -1.000000 0.000000
vn 0.000000 -1.000000 0.000000
vn 1.000000 0.000000 0.000000
vn 1.000000 0.000000 0.000000
vn 1.000000 0.000000 0.000000
vn 1.000000 0.000000 0.000000
vn -1.000000 0.000000 0.000000
vn -1.000000 0.000000 0.000000
vn -1.000000 0.000000 0.000000
vn -1.000000 0.000000 0.000000
vn 0.000000 1.000000 0.000000
vn 0.000000 1.000000 0.000000
vn 0.000000 1.000000 0.000000
vn 0.000000 1.000000 0.000000
vn 0.000000 1.000000 0.000000
vn 0.000000 1.000000 0.000000
vn 0.000000 1.000000 0.000000
vn 0.000000 1.000000 0.000000
vn 0.000000 1.000000 -0.000001
vn 0.000000 1.000000 -0.000001
vn 0.000000 1.000000 -0.000001
vn 0.000000 1.000000 -0.000001
vn 0.000000 1.000000 0.000000
vn 0.000000 1.000000 0.000000
vn 0.000000 1.000000 0.000000
vn 0.000000 1.000000 0.000000
vn 0.000000 0.000000 -1.000000
vn 0.000000 0.000000 -1.000000
vn 0.000000 0.000000 -1.000000
vn 0.000000 0.000000 -1.000000
vn -1.000000 0.000000 0.000000
vn -1.000000 0.000000 0.000000
vn -1.000000 0.000000 0.000000
vn -1.000000 0.000000 0.000000
vn 0.000000 0.000000 1.000000
vn 0.000000 0.000000 1.000000
vn 0.000000 0.000000 1.000000
vn 0.000000 0.000000 1.000000
vn 1.000000 0.000000 0.000000
vn 1.000000 0.000000 0.000000
vn 1.000000 0.000000 0.000000
vn 1.000000 0.000000 0.000000
vn 0.000000 0.000000 1.000000
vn 0.000000 0.000000 1.000000
vn 0.000000 0.000000 1.000000
vn 0.000000 0.000000 1.000000
vn 0.000000 1.000000 0.000000
vn 0.000000 1.000000 0.000000
vn 0.000000 1.000000 0.000000
vn 0.000000 1.000000 0.000000
vn 0.000000 0.000000 -1.000000
vn 0.000000 0.000000 -1.000000
vn 0.000000 0.000000 -1.000000
vn 0.000000 0.000000 -1.000000
vn 1.000000 0.000000 0.000000
vn 1.000000 0.000000 0.000000
vn 1.000000 0.000000 0.000000
vn 1.000000 0.000000 0.000000
vn -1.000000 0.000000 0.000000
vn -1.000000 0.000000 0.000000
vn -1.000000 0.000000 0.000000
vn -1.000000 0.000000 0.000000
vn 0.000000 1.000000 0.000000
vn 0.000000 1.000000 0.000000
vn 0.000000 1.000000 0.000000
vn 0.000000 1.000000 0.000000
vn 0.000000 0.000000 -1.000000
vn 0.000000 0.000000 -1.000000
vn 0.000000 0.000000 -1.000000
vn 0.000000 0.000000 -1.000000
vn 1.000000 0.000000 0.000000
vn 1.000000 0.000000 0.000000
vn 1.000000 0.000000 0.000000
vn 1.000000 0.000000 0.000000
vn -1.000000 0.000000 0.000000
vn -1.000000 0.000000 0.000000
vn -1.000000 0.000000 0.000000
vn -1.000000 0.000000 0.000000
vn 0.000000 0.875415 0.483373
vn 0.000000 0.875415 0.483373
vn 0.000000 0.875415 0.483373
vn 0.000000 0.875415 0.483373
vn 0.000000 0.000000 -1.000000
vn 0.000000 0.000000 -1.000000
vn 0.000000 0.000000 -1.000000
vn 0.000000 0.000000 -1.000000
vn 1.000000 0.000000 0.000000
vn 1.000000 0.000000 0.000000
vn 1.000000 0.000000 0.000000
vn 1.000000 0.000000 0.000000
vn -1.000000 0.000000 0.000000
vn -1.000000 0.000000 0.000000
vn -1.000000 0.000000 0.000000
vn -1.000000 0.000000 0.000000
vn 0.000000 0.000000 1.000000
vn 0.000000 0.000000 1.000000
vn 0.000000 0.000000 1.000000
vn 0.000000 0.000000 1.000000
vn 0.000000 1.000000 0.000000
vn 0.000000 1.000000 0.000000
vn 0.000000 1.000000 0.000000
vn 0.000000 1.000000 0.000000
vn 0.000000 0.000000 -1.000000
vn 0.000000 0.000000 -1.000000
vn 0.000000 0.000000 -1.000000
vn 0.000000 0.000000 -1.000000
vn 1.000000 0.000000 0.000000
vn 1.000000 0.000000 0.000000
vn 1.000000 0.000000 0.000000
vn 1.000000 0.000000 0.000000
vn -1.000000 0.000000 0.000000
vn -1.000000 0.000000 0.000000
vn -1.000000 0.000000 0.000000
vn -1.000000 0.000000 0.000000
vn 0.000000 0.000000 1.000000
vn 0.000000 0.000000 1.000000
vn 0.000000 0.000000 1.000000
vn 0.000000 0.000000 1.000000
vn 0.000000 1.000000 0.000000
vn 0.000000 1.000000 0.000000
vn 0.000000 1.000000 0.000000
vn 0.000000 1.000000 0.000000
vn 0.000000 0.000000 -1.000000
vn 0.000000 0.000000 -1.000000
vn 0.000000 0.000000 -1.000000
vn 0.000000 0.000000 -1.000000
vn 1.000000 0.000000 0.000000
vn 1.000000 0.000000 0.000000
vn 1.000000 0.000000 0.000000
vn 1.000000 0.000000 0.000000
vn -1.000000 0.000000 0.000000
vn -1.000000 0.000000 0.000000
vn -1.000000 0.000000 0.000000
vn -1.000000 0.000000 0.000000
vn 0.000000 0.000000 1.000000
vn 0.000000 0.000000 1.000000
vn 0.000000 0.000000 1.000000
vn 0.000000 0.000000 1.000000
vn 0.000000 1.000000 0.000000
vn 0.000000 1.000000 0.000000
vn 0.000000 1.000000 0.000000
vn 0.000000 1.000000 0.000000
vn 0.000000 0.000000 -1.000000
vn 0.000000 0.000000 -1.000000
vn 0.000000 0.000000 -1.000000
vn 0.000000 0.000000 -1.000000
vn 1.000000 0.000000 0.000000
vn 1.000000 0.000000 0.000000
vn 1.000000 0.000000 0.000000
vn 1.000000 0.000000 0.000000
vn -1.000000 0.000000 0.000000
vn -1.000000 0.000000 0.000000
vn -1.000000 0.000000 0.000000
vn -1.000000 0.000000 0.000000
vn 0.000000 0.000000 1.000000
vn 0.000000 0.000000 1.000000
vn 0.000000 0.000000 1.000000
vn 0.000000 0.000000 1.000000
vn 0.000000 1.000000 0.000000
vn 0.000000 1.000000 0.000000
vn 0.000000 1.000000 0.000000
vn 0.000000 1.000000 0.000000
vn 0.000000 0.000000 -1.000000
vn 0.000000 0.000000 -1.000000
vn 0.000000 0.000000 -1.000000
vn 0.000000 0.000000 -1.000000
vn 1.000000 0.000000 0.000000
vn 1.000000 0.000000 0.000000
vn 1.000000 0.000000 0.000000
vn 1.000000 0.000000 0.000000
vn -1.000000 0.000000 0.000000
vn -1.000000 0.000000 0.000000
vn -1.000000 0.000000 0.000000
vn -1.000000 0.000000 0.000000
s off
g Roof_Clean
f 1/1/1 2/2/2 4/4/3 3/3/4
f 13/19/5 14/20/6 15/21/7 16/22/8
f 5/5/9 6/6/10 8/8/11 7/7/12
f 7/7/13 8/8/14 2/10/15 1/9/16
f 2/2/17 8/11/18 6/12/19 4/4/20
f 7/13/21 1/1/22 3/3/23 5/14/24
f 3/3/25 4/4/26 10/16/27 9/15/28
f 4/4/29 6/6/30 11/17/31 10/16/32
f 6/6/33 5/5/34 12/18/35 11/17/36
f 5/5/37 3/3/38 9/15/39 12/18/40
f 9/15/41 10/16/42 14/20/43 13/19/44
f 10/16/45 11/17/46 15/21/47 14/20/48
f 11/17/49 12/18/50 16/22/51 15/21/52
f 12/18/53 9/15/54 13/19/55 16/22/56
f 17/23/57 18/24/58 20/25/59 19/26/60
f 19/26/61 20/25/62 22/27/63 21/28/64
f 21/28/65 22/27/66 24/29/67 23/30/68
f 18/24/69 24/31/70 22/32/71 20/25/72
f 23/33/73 17/23/74 19/26/75 21/34/76
f 27/35/77 28/36/78 30/37/79 29/38/80
f 29/38/81 30/37/82 32/39/83 31/40/84
f 26/41/85 32/42/86 30/43/87 28/36/88
f 31/44/89 25/45/90 27/35/91 29/46/92
f 35/47/93 36/48/94 38/49/95 37/50/96
f 37/50/97 38/49/98 40/51/99 39/52/100
f 34/53/101 40/54/102 38/55/103 36/48/104
f 39/56/105 33/57/106 35/47/107 37/58/108
f 41/59/109 42/60/110 44/61/111 43/62/112
f 43/62/113 44/61/114 46/63/115 45/64/116
f 45/64/117 46/63/118 48/65/119 47/66/120
f 42/60/121 48/67/122 46/68/123 44/61/124
f 47/69/125 41/59/126 43/62/127 45/70/128
f 49/71/129 50/72/130 52/73/131 51/74/132
f 51/74/133 52/73/134 54/75/135 53/76/136
f 53/76/137 54/75/138 56/77/139 55/78/140
f 50/72/141 56/79/142 54/80/143 52/73/144
f 55/81/145 49/71/146 51/74/147 53/82/148
f 57/83/149 58/84/150 60/85/151 59/86/152
f 59/86/153 60/85/154 62/87/155 61/88/156
f 61/88/157 62/87/158 64/89/159 63/90/160
f 58/84/161 64/91/162 62/92/163 60/85/164
f 63/93/165 57/83/166 59/86/167 61/94/168
f 65/95/169 66/96/170 68/97/171 67/98/172
f 67/98/173 68/97/174 70/99/175 69/100/176
f 69/100/177 70/99/178 72/101/179 71/102/180
f 66/96/181 72/103/182 70/104/183 68/97/184
f 71/105/185 65/95/186 67/98/187 69/106/188
